<?xml version="1.0" encoding="UTF-8" standalone="no"?>
<!-- Created with Inkscape (http://www.inkscape.org/) -->

<svg
   xmlns:dc="http://purl.org/dc/elements/1.1/"
   xmlns:cc="http://creativecommons.org/ns#"
   xmlns:rdf="http://www.w3.org/1999/02/22-rdf-syntax-ns#"
   xmlns:svg="http://www.w3.org/2000/svg"
   xmlns="http://www.w3.org/2000/svg"
   xmlns:sodipodi="http://sodipodi.sourceforge.net/DTD/sodipodi-0.dtd"
   xmlns:inkscape="http://www.inkscape.org/namespaces/inkscape"
   width="744.09448819"
   height="1052.3622047"
   id="svg2"
   version="1.1"
   inkscape:version="0.48.3.1 r9886"
   sodipodi:docname="nodule.svg">
  <defs
     id="defs4" />
  <sodipodi:namedview
     id="base"
     pagecolor="#ffffff"
     bordercolor="#666666"
     borderopacity="1.0"
     inkscape:pageopacity="0.0"
     inkscape:pageshadow="2"
     inkscape:zoom="0.98994949"
     inkscape:cx="350.00902"
     inkscape:cy="517.91281"
     inkscape:document-units="px"
     inkscape:current-layer="layer1"
     showgrid="false"
     inkscape:window-width="1008"
     inkscape:window-height="1105"
     inkscape:window-x="150"
     inkscape:window-y="63"
     inkscape:window-maximized="0"
     showguides="true"
     inkscape:guide-bbox="true" />
  <metadata
     id="metadata7">
    <rdf:RDF>
      <cc:Work
         rdf:about="">
        <dc:format>image/svg+xml</dc:format>
        <dc:type
           rdf:resource="http://purl.org/dc/dcmitype/StillImage" />
        <dc:title></dc:title>
      </cc:Work>
    </rdf:RDF>
  </metadata>
  <g
     inkscape:label="Layer 1"
     inkscape:groupmode="layer"
     id="layer1">
    <g
       id="g3861"
       transform="matrix(0.3886298,0,0,0.3886298,23.864292,59.730096)">
      <path
         sodipodi:nodetypes="ccccc"
         inkscape:connector-curvature="0"
         id="path2985"
         d="m 534.96965,131.36435 25.71429,-17.14285 c 67.27935,73.10514 66.82855,162.14678 71.42857,250 l -27.14286,15.71428 c 1.67425,-112.55365 -11.11584,-207.93089 -70,-248.57143 z"
         style="fill:#00aad4" />
      <path
         transform="matrix(0.70883839,0,0,0.70883839,369.02757,54.493274)"
         d="m 329.99999,273.79074 c 0,26.82526 -21.74617,48.57143 -48.57143,48.57143 -26.82526,0 -48.57143,-21.74617 -48.57143,-48.57143 0,-26.82526 21.74617,-48.57143 48.57143,-48.57143 26.82526,0 48.57143,21.74617 48.57143,48.57143 z"
         sodipodi:ry="48.57143"
         sodipodi:rx="48.57143"
         sodipodi:cy="273.79074"
         sodipodi:cx="281.42856"
         id="path2987"
         style="fill:#00aad4;fill-opacity:1;stroke:none"
         sodipodi:type="arc" />
      <path
         sodipodi:nodetypes="zzzzz"
         inkscape:connector-curvature="0"
         id="path3757"
         d="m 582.11251,167.43578 c -23.99016,-33.46684 -35.37985,-55.70991 -2.5,-16.42857 32.87985,39.28135 43.38167,113.68617 43.21428,146.78572 -0.16739,33.09955 -8.42701,-35.7693 -8.92856,-43.92858 -0.50156,-8.15928 -7.79556,-52.96172 -31.78572,-86.42857 z"
         style="fill:#80e5ff" />
      <path
         sodipodi:nodetypes="zzzzz"
         inkscape:connector-curvature="0"
         id="path3759"
         d="m 565.47707,229.57993 c -11.19885,7.29391 -14.14212,-5.78047 -0.50632,-7.59469 13.6358,-1.81422 28.31225,8.23696 31.39141,21.51831 3.07917,13.28134 -5.83562,22.80676 -5.31629,7.34153 0.51934,-15.46522 -14.36995,-28.55905 -25.5688,-21.26515 z"
         style="fill:#80e5ff" />
      <text
         sodipodi:linespacing="125%"
         id="text3761"
         y="369.49634"
         x="125.50614"
         style="font-size:144px;font-style:normal;font-variant:normal;font-weight:bold;font-stretch:normal;line-height:125%;letter-spacing:0px;word-spacing:0px;fill:#000000;fill-opacity:1;stroke:none;font-family:Helvetica;-inkscape-font-specification:Akka Bold"
         xml:space="preserve"><tspan
           y="369.49634"
           x="125.50614"
           id="tspan3763"
           sodipodi:role="line">nodule</tspan></text>
    </g>
    <g
       id="g3854"
       transform="matrix(0.63084357,0,0,0.63084357,42.814963,-77.542618)">
      <text
         xml:space="preserve"
         style="font-size:111.9418335px;font-style:normal;font-variant:normal;font-weight:bold;font-stretch:normal;line-height:125%;letter-spacing:0px;word-spacing:0px;fill:#000000;fill-opacity:1;stroke:none;font-family:Helvetica;-inkscape-font-specification:Akka Bold"
         x="52.838634"
         y="709.05945"
         id="text3784"
         sodipodi:linespacing="125%"><tspan
           sodipodi:role="line"
           id="tspan3786"
           x="52.838634"
           y="709.05945">nodel</tspan></text>
      <path
         style="fill:#00aad4"
         d="m 319.31728,526.29771 c -16.50129,-19.44571 -1.07892,-45.65508 16.84855,-12.54114 17.92747,33.11394 44.88337,126.04866 48.45931,194.34345 l -21.10015,12.21587 c 1.30152,-87.49626 -27.70641,-174.57248 -44.20771,-194.01818 z"
         id="path3788"
         inkscape:connector-curvature="0"
         sodipodi:nodetypes="zzccz" />
      <path
         style="fill:#80e5ff"
         d="m 339.47432,533.13651 c -13.62039,-26.01626 -12.61212,-29.56621 1.98289,-4.13322 14.59502,25.43299 34.07051,117.69827 35.16419,143.94749 1.09367,26.24922 -7.5454,-39.58511 -8.51137,-45.92792 -0.96597,-6.34281 -15.01533,-67.8701 -28.63571,-93.88635 z"
         id="path3792"
         inkscape:connector-curvature="0"
         sodipodi:nodetypes="zzzzz" />
      <path
         sodipodi:nodetypes="zzzzz"
         inkscape:connector-curvature="0"
         id="path3796"
         d="m 327.09697,528.84302 c -0.54462,-0.91399 -2.57593,-13.36577 -8.24529,-18.84639 -5.66937,-5.48062 3.31033,-2.48753 3.92633,-3.14107 0.61599,-0.65353 7.86466,13.73842 9.81582,19.63166 1.95116,5.89325 -4.95224,3.26979 -5.49686,2.3558 z"
         style="fill:#ffffff" />
    </g>
    <text
       xml:space="preserve"
       style="font-size:66.30076599px;font-style:normal;font-variant:normal;font-weight:bold;font-stretch:normal;line-height:125%;letter-spacing:0px;word-spacing:0px;fill:#000000;fill-opacity:1;stroke:none;font-family:Helvetica;-inkscape-font-specification:Akka Bold"
       x="356.01413"
       y="162.13019"
       id="text3798"
       sodipodi:linespacing="125%"><tspan
         sodipodi:role="line"
         id="tspan3800"
         x="356.01413"
         y="162.13019">nodem</tspan></text>
    <g
       id="g4040"
       transform="translate(197.77664,-203.38219)">
      <g
         transform="matrix(0.63989654,0.36944444,-0.36944444,0.63989654,362.65052,-210.41123)"
         id="g3834">
        <rect
           style="fill:#00aad4;fill-opacity:1"
           id="rect3802"
           width="90.408653"
           height="90.408653"
           x="604.07123"
           y="863.96875" />
        <rect
           style="fill:#00aad4;fill-opacity:1"
           id="rect3804"
           width="117.68277"
           height="7.0710678"
           x="591.44434"
           y="872.80756" />
        <rect
           y="886.19208"
           x="591.44434"
           height="7.0710678"
           width="117.68277"
           id="rect3806"
           style="fill:#00aad4;fill-opacity:1" />
        <rect
           style="fill:#00aad4;fill-opacity:1"
           id="rect3812"
           width="117.68277"
           height="7.0710678"
           x="591.44434"
           y="899.5766" />
        <rect
           y="912.96118"
           x="591.44434"
           height="7.0710678"
           width="117.68277"
           id="rect3814"
           style="fill:#00aad4;fill-opacity:1" />
        <rect
           style="fill:#00aad4;fill-opacity:1"
           id="rect3816"
           width="117.68277"
           height="7.0710678"
           x="591.44434"
           y="926.3457" />
        <rect
           y="939.73022"
           x="591.44434"
           height="7.0710678"
           width="117.68277"
           id="rect3818"
           style="fill:#00aad4;fill-opacity:1" />
        <rect
           y="-687.28259"
           x="850.96301"
           height="7.0710678"
           width="117.68277"
           id="rect3820"
           style="fill:#00aad4;fill-opacity:1"
           transform="matrix(0,1,-1,0,0,0)" />
        <rect
           style="fill:#00aad4;fill-opacity:1"
           id="rect3822"
           width="117.68277"
           height="7.0710678"
           x="850.96301"
           y="-673.89807"
           transform="matrix(0,1,-1,0,0,0)" />
        <rect
           y="-660.51355"
           x="850.96301"
           height="7.0710678"
           width="117.68277"
           id="rect3824"
           style="fill:#00aad4;fill-opacity:1"
           transform="matrix(0,1,-1,0,0,0)" />
        <rect
           style="fill:#00aad4;fill-opacity:1"
           id="rect3826"
           width="117.68277"
           height="7.0710678"
           x="850.96301"
           y="-647.12897"
           transform="matrix(0,1,-1,0,0,0)" />
        <rect
           y="-633.74445"
           x="850.96301"
           height="7.0710678"
           width="117.68277"
           id="rect3828"
           style="fill:#00aad4;fill-opacity:1"
           transform="matrix(0,1,-1,0,0,0)" />
        <rect
           style="fill:#00aad4;fill-opacity:1"
           id="rect3830"
           width="117.68277"
           height="7.0710678"
           x="850.96301"
           y="-620.35992"
           transform="matrix(0,1,-1,0,0,0)" />
        <path
           style="fill:#55ddff"
           d="m 627.5,878.07647 c -41.64551,3.63117 29.94967,-15.35748 52.5,-0.71429 22.55033,14.64318 2.82771,82.16865 5,42.14286 2.1723,-40.02578 -15.85448,-45.05974 -57.5,-41.42857 z"
           id="path3832"
           inkscape:connector-curvature="0"
           sodipodi:nodetypes="zzzz" />
      </g>
      <text
         transform="matrix(0.8660254,0.5,-0.5,0.8660254,0,0)"
         sodipodi:linespacing="125%"
         id="text3850"
         y="335.95883"
         x="659.66998"
         style="font-size:17.52309036px;font-style:normal;font-variant:normal;font-weight:bold;font-stretch:normal;line-height:125%;letter-spacing:0px;word-spacing:0px;fill:#aaeeff;fill-opacity:1;stroke:none;font-family:Helvetica;-inkscape-font-specification:Akka Bold"
         xml:space="preserve"><tspan
           y="335.95883"
           x="659.66998"
           id="tspan3852"
           sodipodi:role="line">JS</tspan></text>
    </g>
    <g
       id="g4002"
       transform="matrix(0.51005865,0,0,0.51005865,323.43852,134.52015)">
      <rect
         style="fill:#f7df1e"
         id="background"
         x="503.22357"
         y="194.91026"
         width="154.21815"
         height="154.21815" />
      <rect
         height="14.817103"
         width="201.19026"
         y="211.57779"
         x="481.00018"
         id="rect3982"
         style="fill:#f7df1e" />
      <rect
         style="fill:#f7df1e"
         id="rect3984"
         x="481.00018"
         y="237.71547"
         width="201.19026"
         height="14.817103" />
      <rect
         height="14.817103"
         width="201.19026"
         y="263.85315"
         x="481.00018"
         id="rect3986"
         style="fill:#f7df1e" />
      <rect
         style="fill:#f7df1e"
         id="rect3988"
         x="481.00018"
         y="289.99091"
         width="201.19026"
         height="14.817103" />
      <rect
         height="14.817103"
         width="201.19026"
         y="316.1286"
         x="481.00018"
         id="rect3990"
         style="fill:#f7df1e" />
      <rect
         transform="matrix(0,-1,1,0,0,0)"
         style="fill:#f7df1e"
         id="rect3992"
         x="-371.85687"
         y="521.91138"
         width="201.19026"
         height="14.817103" />
      <rect
         transform="matrix(0,-1,1,0,0,0)"
         height="14.817103"
         width="201.19026"
         y="548.04901"
         x="-371.85687"
         id="rect3994"
         style="fill:#f7df1e" />
      <rect
         transform="matrix(0,-1,1,0,0,0)"
         style="fill:#f7df1e"
         id="rect3996"
         x="-371.85687"
         y="574.18671"
         width="201.19026"
         height="14.817103" />
      <path
         inkscape:connector-curvature="0"
         id="j"
         d="m 543.77314,323.78616 11.80198,-7.14238 c 2.27686,4.0369 4.34809,7.45234 9.31612,7.45234 4.7621,0 7.76445,-1.86279 7.76445,-9.10866 l 0,-49.27637 14.49253,0 0,49.48138 c 0,15.01057 -8.79869,21.84299 -21.63583,21.84299 -11.59359,0 -18.32319,-6.00441 -21.73925,-13.25053" />
      <rect
         transform="matrix(0,-1,1,0,0,0)"
         height="14.817103"
         width="201.19026"
         y="600.32446"
         x="-371.85687"
         id="rect3998"
         style="fill:#f7df1e" />
      <rect
         transform="matrix(0,-1,1,0,0,0)"
         style="fill:#f7df1e"
         id="rect4000"
         x="-371.85687"
         y="626.46216"
         width="201.19026"
         height="14.817103" />
      <path
         inkscape:connector-curvature="0"
         id="s"
         d="m 595.02008,322.23327 11.80044,-6.83242 c 3.1064,5.07298 7.14361,8.79962 14.2863,8.79962 6.00502,0 9.83416,-3.0023 9.83416,-7.1433 0,-4.96895 -3.93348,-6.72899 -10.55905,-9.6267 l -3.62229,-1.55381 c -10.45624,-4.4506 -17.39238,-10.04071 -17.39238,-21.84207 0,-10.86962 8.28157,-19.15181 21.22213,-19.15181 9.21331,0 15.83857,3.20951 20.60006,11.59482 l -11.28394,7.24611 c -2.48462,-4.45091 -5.17549,-6.21065 -9.31612,-6.21065 -4.24437,0 -6.93615,2.69148 -6.93615,6.21065 0,4.34809 2.69178,6.10814 8.90243,8.79992 l 3.6229,1.55258 c 12.3191,5.27983 19.25524,10.66248 19.25524,22.7738 0,13.04429 -10.24847,20.18667 -24.01642,20.18667 -13.45767,0 -22.15356,-6.4178 -26.39731,-14.80341" />
    </g>
    <text
       xml:space="preserve"
       style="font-size:17.86200333px;font-style:normal;font-variant:normal;font-weight:bold;font-stretch:normal;line-height:125%;letter-spacing:0px;word-spacing:0px;fill:#000000;fill-opacity:1;stroke:none;font-family:Helvetica;-inkscape-font-specification:Akka Bold"
       x="356.91025"
       y="179.40826"
       id="text4017"
       sodipodi:linespacing="125%"><tspan
         sodipodi:role="line"
         id="tspan4019"
         x="356.91025"
         y="179.40826">JavaScript for Microcontrollers</tspan></text>
    <g
       transform="matrix(0.30700173,0.08226086,-0.08226086,0.30700173,440.85776,-27.960311)"
       id="g4059">
      <rect
         height="154.21815"
         width="154.21815"
         y="194.91026"
         x="503.22357"
         id="rect4061"
         style="fill:#f7df1e" />
      <rect
         style="fill:#f7df1e"
         id="rect4063"
         x="481.00018"
         y="211.57779"
         width="201.19026"
         height="14.817103" />
      <rect
         height="14.817103"
         width="201.19026"
         y="237.71547"
         x="481.00018"
         id="rect4065"
         style="fill:#f7df1e" />
      <rect
         style="fill:#f7df1e"
         id="rect4067"
         x="481.00018"
         y="263.85315"
         width="201.19026"
         height="14.817103" />
      <rect
         height="14.817103"
         width="201.19026"
         y="289.99091"
         x="481.00018"
         id="rect4069"
         style="fill:#f7df1e" />
      <rect
         style="fill:#f7df1e"
         id="rect4071"
         x="481.00018"
         y="316.1286"
         width="201.19026"
         height="14.817103" />
      <rect
         height="14.817103"
         width="201.19026"
         y="521.91138"
         x="-371.85687"
         id="rect4073"
         style="fill:#f7df1e"
         transform="matrix(0,-1,1,0,0,0)" />
      <rect
         style="fill:#f7df1e"
         id="rect4075"
         x="-371.85687"
         y="548.04901"
         width="201.19026"
         height="14.817103"
         transform="matrix(0,-1,1,0,0,0)" />
      <rect
         height="14.817103"
         width="201.19026"
         y="574.18671"
         x="-371.85687"
         id="rect4077"
         style="fill:#f7df1e"
         transform="matrix(0,-1,1,0,0,0)" />
      <path
         d="m 543.77314,323.78616 11.80198,-7.14238 c 2.27686,4.0369 4.34809,7.45234 9.31612,7.45234 4.7621,0 7.76445,-1.86279 7.76445,-9.10866 l 0,-49.27637 14.49253,0 0,49.48138 c 0,15.01057 -8.79869,21.84299 -21.63583,21.84299 -11.59359,0 -18.32319,-6.00441 -21.73925,-13.25053"
         id="path4079"
         inkscape:connector-curvature="0" />
      <rect
         style="fill:#f7df1e"
         id="rect4081"
         x="-371.85687"
         y="600.32446"
         width="201.19026"
         height="14.817103"
         transform="matrix(0,-1,1,0,0,0)" />
      <rect
         height="14.817103"
         width="201.19026"
         y="626.46216"
         x="-371.85687"
         id="rect4083"
         style="fill:#f7df1e"
         transform="matrix(0,-1,1,0,0,0)" />
      <path
         d="m 595.02008,322.23327 11.80044,-6.83242 c 3.1064,5.07298 7.14361,8.79962 14.2863,8.79962 6.00502,0 9.83416,-3.0023 9.83416,-7.1433 0,-4.96895 -3.93348,-6.72899 -10.55905,-9.6267 l -3.62229,-1.55381 c -10.45624,-4.4506 -17.39238,-10.04071 -17.39238,-21.84207 0,-10.86962 8.28157,-19.15181 21.22213,-19.15181 9.21331,0 15.83857,3.20951 20.60006,11.59482 l -11.28394,7.24611 c -2.48462,-4.45091 -5.17549,-6.21065 -9.31612,-6.21065 -4.24437,0 -6.93615,2.69148 -6.93615,6.21065 0,4.34809 2.69178,6.10814 8.90243,8.79992 l 3.6229,1.55258 c 12.3191,5.27983 19.25524,10.66248 19.25524,22.7738 0,13.04429 -10.24847,20.18667 -24.01642,20.18667 -13.45767,0 -22.15356,-6.4178 -26.39731,-14.80341"
         id="path4085"
         inkscape:connector-curvature="0" />
    </g>
    <text
       xml:space="preserve"
       style="font-size:106.40000153px;font-style:normal;font-variant:normal;font-weight:bold;font-stretch:normal;line-height:125%;letter-spacing:0px;word-spacing:0px;fill:#000000;fill-opacity:1;stroke:none;font-family:Helvetica;-inkscape-font-specification:Akka Bold"
       x="131.49376"
       y="671.61188"
       id="text3798-1"
       sodipodi:linespacing="125%"
       inkscape:export-filename="/home/gw/workspace/TinyJSC/doc/nodelingjs.png"
       inkscape:export-xdpi="83.840652"
       inkscape:export-ydpi="83.840652"><tspan
         sodipodi:role="line"
         id="tspan3800-6"
         x="131.49376"
         y="671.61188">nodeling</tspan></text>
    <text
       sodipodi:linespacing="125%"
       id="text3074"
       y="427.7789"
       x="64.530899"
       style="font-size:48.741436px;font-style:normal;font-variant:normal;font-weight:bold;font-stretch:normal;line-height:125%;letter-spacing:0px;word-spacing:0px;fill:#000000;fill-opacity:1;stroke:none;font-family:Helvetica;-inkscape-font-specification:Akka Bold"
       xml:space="preserve"><tspan
         y="427.7789"
         x="64.530899"
         sodipodi:role="line"
         id="tspan3090">nodelite</tspan></text>
    <text
       xml:space="preserve"
       style="font-size:48.741436px;font-style:normal;font-variant:normal;font-weight:bold;font-stretch:normal;line-height:125%;letter-spacing:0px;word-spacing:0px;fill:#000000;fill-opacity:1;stroke:none;font-family:Helvetica;-inkscape-font-specification:Akka Bold"
       x="65.45639"
       y="481.92032"
       id="text3057"
       sodipodi:linespacing="125%"><tspan
         sodipodi:role="line"
         x="65.45639"
         y="481.92032"
         id="tspan3061">noodle.js</tspan></text>
    <g
       id="g3051"
       transform="matrix(0.49267882,0.13201289,-0.13201289,0.49267882,378.25513,369.96346)"
       inkscape:export-filename="/home/gw/workspace/TinyJSC/doc/nodelingjs.png"
       inkscape:export-xdpi="83.840652"
       inkscape:export-ydpi="83.840652">
      <rect
         style="fill:#f7df1e"
         id="rect3053"
         x="503.22357"
         y="194.91026"
         width="154.21815"
         height="154.21815" />
      <rect
         height="14.817103"
         width="201.19026"
         y="211.57779"
         x="481.00018"
         id="rect3055"
         style="fill:#f7df1e" />
      <rect
         style="fill:#f7df1e"
         id="rect3057"
         x="481.00018"
         y="237.71547"
         width="201.19026"
         height="14.817103" />
      <rect
         height="14.817103"
         width="201.19026"
         y="263.85315"
         x="481.00018"
         id="rect3059"
         style="fill:#f7df1e" />
      <rect
         style="fill:#f7df1e"
         id="rect3061"
         x="481.00018"
         y="289.99091"
         width="201.19026"
         height="14.817103" />
      <rect
         height="14.817103"
         width="201.19026"
         y="316.1286"
         x="481.00018"
         id="rect3063"
         style="fill:#f7df1e" />
      <rect
         transform="matrix(0,-1,1,0,0,0)"
         style="fill:#f7df1e"
         id="rect3065"
         x="-371.85687"
         y="521.91138"
         width="201.19026"
         height="14.817103" />
      <rect
         transform="matrix(0,-1,1,0,0,0)"
         height="14.817103"
         width="201.19026"
         y="548.04901"
         x="-371.85687"
         id="rect3067"
         style="fill:#f7df1e" />
      <rect
         transform="matrix(0,-1,1,0,0,0)"
         style="fill:#f7df1e"
         id="rect3069"
         x="-371.85687"
         y="574.18671"
         width="201.19026"
         height="14.817103" />
      <path
         inkscape:connector-curvature="0"
         id="path3071"
         d="m 543.77314,323.78616 11.80198,-7.14238 c 2.27686,4.0369 4.34809,7.45234 9.31612,7.45234 4.7621,0 7.76445,-1.86279 7.76445,-9.10866 l 0,-49.27637 14.49253,0 0,49.48138 c 0,15.01057 -8.79869,21.84299 -21.63583,21.84299 -11.59359,0 -18.32319,-6.00441 -21.73925,-13.25053" />
      <rect
         transform="matrix(0,-1,1,0,0,0)"
         height="14.817103"
         width="201.19026"
         y="600.32446"
         x="-371.85687"
         id="rect3073"
         style="fill:#f7df1e" />
      <rect
         transform="matrix(0,-1,1,0,0,0)"
         style="fill:#f7df1e"
         id="rect3075"
         x="-371.85687"
         y="626.46216"
         width="201.19026"
         height="14.817103" />
      <path
         inkscape:connector-curvature="0"
         id="path3077"
         d="m 595.02008,322.23327 11.80044,-6.83242 c 3.1064,5.07298 7.14361,8.79962 14.2863,8.79962 6.00502,0 9.83416,-3.0023 9.83416,-7.1433 0,-4.96895 -3.93348,-6.72899 -10.55905,-9.6267 l -3.62229,-1.55381 c -10.45624,-4.4506 -17.39238,-10.04071 -17.39238,-21.84207 0,-10.86962 8.28157,-19.15181 21.22213,-19.15181 9.21331,0 15.83857,3.20951 20.60006,11.59482 l -11.28394,7.24611 c -2.48462,-4.45091 -5.17549,-6.21065 -9.31612,-6.21065 -4.24437,0 -6.93615,2.69148 -6.93615,6.21065 0,4.34809 2.69178,6.10814 8.90243,8.79992 l 3.6229,1.55258 c 12.3191,5.27983 19.25524,10.66248 19.25524,22.7738 0,13.04429 -10.24847,20.18667 -24.01642,20.18667 -13.45767,0 -22.15356,-6.4178 -26.39731,-14.80341" />
    </g>
  </g>
</svg>
